<?xml version="1.0" standalone="no"?>
<!DOCTYPE svg PUBLIC "-//W3C//DTD SVG 20010904//EN"
 "http://www.w3.org/TR/2001/REC-SVG-20010904/DTD/svg10.dtd">
<svg version="1.0" xmlns="http://www.w3.org/2000/svg"
 width="512.000000pt" height="512.000000pt" viewBox="0 0 512.000000 512.000000"
 preserveAspectRatio="xMidYMid meet">

<g transform="translate(0.000000,512.000000) scale(0.100000,-0.100000)"
fill="#000000" stroke="none">
<path d="M2428 5110 c-259 -44 -487 -210 -602 -440 -23 -47 -45 -95 -48 -108
-6 -23 -7 -23 -45 -6 -149 65 -359 83 -523 44 -235 -57 -445 -226 -549 -443
-58 -120 -72 -183 -78 -344 -4 -98 -9 -143 -17 -143 -23 0 -161 -72 -221 -115
-249 -177 -382 -495 -334 -795 53 -334 320 -615 644 -679 74 -14 84 -19 114
-56 47 -57 146 -141 211 -179 144 -85 296 -122 464 -113 225 11 410 97 563
261 l62 65 1178 3 c1174 3 1178 3 1254 25 297 84 513 303 595 603 25 89 25
300 1 389 -45 166 -102 265 -222 387 -92 94 -166 144 -273 186 l-60 23 -5 145
c-6 178 -35 299 -106 445 -216 440 -698 678 -1174 579 l-68 -14 -53 54 c-176
176 -462 267 -708 226z m322 -188 c137 -48 259 -132 333 -228 33 -43 46 -53
62 -49 167 48 170 48 320 48 124 1 164 -3 230 -21 102 -28 243 -96 322 -156
256 -194 394 -523 353 -841 -7 -49 -13 -98 -13 -108 -2 -15 14 -24 82 -43 261
-76 440 -247 497 -474 22 -85 22 -237 0 -320 -57 -224 -213 -388 -451 -476
-47 -18 -113 -19 -1277 -24 l-1227 -5 -29 -40 c-103 -139 -249 -239 -402 -276
-76 -18 -231 -16 -309 5 -137 37 -264 121 -362 241 l-60 72 -67 6 c-245 21
-470 203 -553 447 -31 90 -38 260 -15 363 54 240 236 415 510 487 67 18 86 27
81 38 -3 8 -13 56 -21 106 -39 224 25 428 185 586 149 147 340 215 540 190
126 -16 257 -68 353 -141 l53 -39 23 117 c38 198 122 335 267 438 75 54 158
92 240 111 84 19 263 12 335 -14z"/>
<path d="M3470 4455 l0 -85 33 0 c58 0 158 -30 231 -67 156 -82 273 -246 298
-420 l12 -83 82 0 82 0 -5 48 c-9 100 -36 196 -81 285 -37 76 -62 108 -136
183 -75 74 -107 99 -183 136 -87 44 -177 70 -285 82 l-48 6 0 -85z"/>
<path d="M1318 1503 c-131 -166 -212 -300 -236 -386 -23 -82 18 -204 92 -275
208 -202 556 -61 556 226 0 48 -7 72 -45 147 -40 79 -157 246 -251 359 l-32
38 -84 -109z m203 -315 c50 -85 56 -116 34 -173 -40 -107 -174 -139 -260 -64
-40 35 -60 92 -51 141 6 35 65 138 125 221 l34 47 39 -53 c22 -28 57 -82 79
-119z"/>
<path d="M2731 1515 c-231 -293 -283 -419 -231 -557 25 -67 95 -146 158 -178
213 -106 472 45 476 279 1 59 -4 75 -42 150 -23 46 -63 114 -89 150 -47 66
-191 251 -196 251 -1 0 -35 -43 -76 -95z m136 -237 c105 -152 125 -223 81
-288 -34 -49 -71 -72 -125 -77 -88 -9 -162 48 -178 137 -4 27 1 49 23 95 33
67 128 205 141 205 5 0 31 -33 58 -72z"/>
<path d="M4137 1518 c-111 -140 -162 -217 -209 -309 -38 -75 -43 -91 -42 -150
4 -239 271 -389 485 -272 136 74 203 243 148 373 -42 101 -163 280 -281 418
l-28 32 -73 -92z m134 -240 c76 -108 111 -185 104 -228 -16 -88 -91 -146 -177
-138 -55 6 -92 28 -125 78 -45 65 -25 136 80 288 27 39 53 72 58 72 5 0 32
-33 60 -72z"/>
<path d="M2078 833 c-94 -104 -235 -312 -277 -413 -60 -141 21 -323 174 -392
74 -33 190 -32 266 4 104 48 168 131 188 244 14 75 0 126 -64 239 -50 87 -242
345 -257 345 -2 0 -16 -12 -30 -27z m139 -378 c41 -68 48 -88 48 -132 0 -155
-202 -211 -297 -82 -11 14 -22 44 -25 67 -5 35 1 52 37 119 23 43 60 102 82
132 l41 55 33 -40 c18 -21 55 -75 81 -119z"/>
<path d="M3408 739 c-170 -221 -234 -345 -225 -438 7 -70 57 -170 104 -212
170 -149 424 -98 522 104 53 109 37 201 -64 361 -59 94 -221 306 -235 306 -4
0 -50 -54 -102 -121z m159 -201 c81 -118 106 -174 101 -229 -8 -84 -71 -139
-158 -139 -112 0 -190 102 -154 203 16 45 140 237 153 237 5 0 31 -33 58 -72z"/>
</g>
</svg>
