<?xml version="1.0" standalone="no"?>
<!DOCTYPE svg PUBLIC "-//W3C//DTD SVG 20010904//EN"
 "http://www.w3.org/TR/2001/REC-SVG-20010904/DTD/svg10.dtd">
<svg version="1.0" xmlns="http://www.w3.org/2000/svg"
 width="512.000000pt" height="512.000000pt" viewBox="0 0 512.000000 512.000000"
 preserveAspectRatio="xMidYMid meet">

<g transform="translate(0.000000,512.000000) scale(0.100000,-0.100000)"
fill="#000000" stroke="none">
<path d="M2492 5109 c-47 -14 -109 -80 -122 -130 -7 -26 -10 -121 -8 -263 3
-222 3 -223 30 -263 41 -62 90 -88 168 -88 78 0 127 26 168 88 l27 41 0 245
c0 241 0 247 -24 284 -47 76 -151 113 -239 86z"/>
<path d="M1274 4815 c-56 -28 -84 -61 -104 -119 -23 -70 -9 -113 86 -278 142
-247 159 -271 206 -298 100 -57 223 -19 274 85 44 90 36 120 -86 331 -138 241
-144 249 -203 279 -64 32 -110 32 -173 0z"/>
<path d="M3673 4815 c-59 -30 -65 -38 -203 -279 -122 -211 -130 -241 -86 -331
51 -104 174 -142 274 -85 47 27 65 52 213 309 100 175 108 213 62 301 -23 44
-39 59 -82 82 -66 35 -112 35 -178 3z"/>
<path d="M415 3947 c-55 -22 -84 -48 -110 -100 -32 -64 -32 -110 0 -174 30
-59 38 -65 279 -203 211 -122 241 -130 331 -86 104 51 142 174 85 274 -27 47
-51 64 -299 207 -130 75 -162 89 -205 92 -28 1 -64 -3 -81 -10z"/>
<path d="M2382 3949 c-175 -24 -360 -86 -507 -170 -129 -74 -219 -145 -326
-257 -187 -195 -303 -414 -361 -685 -31 -146 -31 -408 0 -554 58 -269 173
-489 357 -681 190 -200 413 -332 669 -397 392 -99 789 -29 1139 202 94 62 299
267 362 363 166 250 239 491 239 790 0 241 -41 420 -141 620 -76 150 -139 236
-268 365 -208 209 -422 326 -703 385 -114 24 -350 34 -460 19z m413 -418 c465
-115 786 -544 762 -1016 -20 -368 -226 -685 -554 -849 -269 -135 -590 -139
-859 -12 -121 57 -204 115 -289 201 -336 335 -390 853 -130 1251 149 229 388
387 662 439 104 20 301 13 408 -14z"/>
<path d="M4574 3950 c-25 -10 -255 -142 -359 -206 -88 -53 -119 -102 -120
-184 0 -81 37 -140 110 -176 90 -44 120 -36 331 86 241 138 249 144 279 203
32 66 32 112 -3 178 -22 43 -38 59 -81 81 -54 29 -114 35 -157 18z"/>
<path d="M132 2749 c-47 -14 -109 -80 -123 -131 -23 -89 12 -182 88 -229 37
-24 43 -24 284 -24 l245 0 41 27 c62 41 88 90 88 168 0 78 -26 127 -88 168
l-40 27 -231 2 c-129 1 -246 -2 -264 -8z"/>
<path d="M4492 2749 c-47 -14 -109 -80 -123 -131 -23 -89 12 -182 88 -229 37
-24 43 -24 284 -24 l245 0 41 27 c62 41 88 90 88 168 0 78 -26 127 -88 168
l-40 27 -231 2 c-129 1 -246 -2 -264 -8z"/>
<path d="M763 1750 c-28 -12 -345 -194 -395 -227 -53 -36 -92 -118 -86 -178 9
-71 49 -129 113 -161 88 -43 122 -35 306 71 248 143 272 160 299 207 35 61 34
138 -3 200 -44 76 -158 119 -234 88z"/>
<path d="M4202 1735 c-101 -52 -138 -174 -82 -273 27 -47 53 -65 309 -212 173
-100 209 -108 296 -66 41 21 61 39 81 72 39 67 42 122 10 188 -31 62 -36 67
-280 207 -211 121 -244 129 -334 84z"/>
<path d="M1508 1021 c-81 -26 -92 -41 -253 -320 -106 -184 -114 -218 -71 -306
21 -41 39 -61 72 -81 67 -39 122 -42 188 -10 62 31 67 36 206 280 122 211 130
241 86 331 -20 41 -39 62 -70 80 -47 28 -117 39 -158 26z"/>
<path d="M3508 1021 c-59 -19 -97 -52 -124 -107 -44 -89 -36 -119 86 -330 139
-244 144 -249 206 -280 66 -32 121 -29 188 10 33 20 51 40 72 81 43 88 35 122
-71 306 -141 244 -160 273 -204 297 -45 25 -113 35 -153 23z"/>
<path d="M2492 749 c-47 -14 -109 -80 -122 -130 -7 -26 -10 -121 -8 -263 3
-222 3 -223 30 -263 41 -62 90 -88 168 -88 78 0 127 26 168 88 l27 41 0 245
c0 241 0 247 -24 284 -47 76 -151 113 -239 86z"/>
</g>
</svg>
