<?xml version="1.0" standalone="no"?>
<!DOCTYPE svg PUBLIC "-//W3C//DTD SVG 20010904//EN"
 "http://www.w3.org/TR/2001/REC-SVG-20010904/DTD/svg10.dtd">
<svg version="1.0" xmlns="http://www.w3.org/2000/svg"
 width="512.000000pt" height="512.000000pt" viewBox="0 0 512.000000 512.000000"
 preserveAspectRatio="xMidYMid meet">

<g transform="translate(0.000000,512.000000) scale(0.100000,-0.100000)"
fill="#000000" stroke="none">
<path d="M1945 5110 c-564 -89 -988 -546 -1031 -1113 l-7 -84 -73 -7 c-389
-35 -715 -318 -811 -703 -25 -101 -23 -323 5 -424 41 -152 110 -274 222 -392
113 -121 267 -212 435 -259 78 -22 95 -23 683 -26 331 -1 602 -5 602 -8 0 -3
-64 -84 -142 -181 -77 -97 -148 -189 -156 -205 -19 -39 -11 -107 17 -147 17
-23 85 -62 282 -161 142 -72 259 -135 259 -140 0 -6 -61 -253 -135 -550 -74
-297 -135 -551 -135 -565 0 -45 37 -103 80 -125 51 -26 96 -25 142 3 26 15
225 256 642 778 332 416 612 772 621 790 22 41 15 106 -14 148 -17 23 -85 62
-282 161 -142 72 -259 136 -259 143 0 6 3 22 6 34 l6 22 732 3 c722 3 732 4
811 26 320 89 560 330 646 647 31 114 32 335 1 450 -30 112 -109 267 -179 350
-113 134 -272 243 -426 291 -55 17 -58 20 -96 88 -145 263 -392 458 -676 533
-131 34 -345 39 -470 9 -61 -14 -80 -15 -83 -6 -15 43 -140 209 -213 281 -154
153 -337 257 -547 311 -96 24 -143 30 -257 33 -77 2 -167 0 -200 -5z m380
-318 c158 -43 290 -117 403 -226 86 -82 126 -139 193 -270 85 -168 117 -181
291 -122 221 76 436 54 634 -65 134 -80 264 -236 320 -381 33 -87 65 -112 165
-133 338 -69 554 -409 469 -739 -28 -111 -73 -189 -160 -276 -86 -87 -162
-131 -276 -160 -73 -19 -113 -20 -731 -20 -359 0 -653 2 -653 5 0 3 41 167 90
365 50 198 90 371 90 385 0 71 -76 145 -149 145 -70 0 -88 -18 -446 -467
l-347 -433 -687 0 c-652 0 -692 1 -765 20 -324 83 -524 398 -450 710 40 170
171 338 324 412 136 67 216 77 425 52 42 -5 55 -2 84 18 76 51 81 74 66 263
-19 248 87 510 282 696 127 121 282 202 450 234 102 19 283 13 378 -13z m300
-2560 c-36 -144 -65 -274 -65 -289 0 -15 10 -46 23 -68 20 -37 40 -49 249
-155 124 -63 229 -118 233 -122 4 -3 -136 -185 -311 -402 -174 -218 -318 -395
-321 -393 -2 3 26 122 62 265 36 144 65 274 65 289 0 15 -10 46 -23 68 -20 37
-40 49 -249 155 -124 63 -229 118 -233 122 -4 3 136 185 311 402 174 218 318
395 321 393 2 -3 -26 -122 -62 -265z"/>
<path d="M986 1477 c-34 -19 -58 -56 -183 -272 -162 -280 -182 -322 -190 -411
-12 -133 35 -263 132 -359 137 -137 340 -172 513 -87 201 98 300 342 224 552
-11 30 -85 168 -164 305 -125 215 -151 253 -184 272 -22 13 -55 23 -74 23 -19
0 -53 -10 -74 -23z m141 -544 c82 -145 83 -147 83 -183 0 -76 -74 -150 -151
-150 -97 0 -180 121 -138 203 30 61 134 237 139 237 3 0 33 -48 67 -107z"/>
<path d="M3986 1477 c-34 -19 -58 -56 -183 -272 -162 -280 -182 -322 -190
-411 -12 -133 35 -263 132 -359 137 -137 340 -172 513 -87 201 98 300 342 224
552 -11 30 -85 168 -164 305 -125 215 -151 253 -184 272 -22 13 -55 23 -74 23
-19 0 -53 -10 -74 -23z m141 -544 c82 -145 83 -147 83 -183 0 -76 -74 -150
-151 -150 -97 0 -180 121 -138 203 30 61 134 237 139 237 3 0 33 -48 67 -107z"/>
</g>
</svg>
